<?xml version="1.0" encoding="utf-8"?>
<!-- Generator: Adobe Illustrator 16.0.0, SVG Export Plug-In . SVG Version: 6.00 Build 0)  -->
<!DOCTYPE svg PUBLIC "-//W3C//DTD SVG 1.1//EN" "http://www.w3.org/Graphics/SVG/1.1/DTD/svg11.dtd">
<svg version="1.1" id="Calque_1" xmlns="http://www.w3.org/2000/svg" xmlns:xlink="http://www.w3.org/1999/xlink" x="0px" y="0px"
	 width="1697.41px" height="141px" viewBox="0 0 1697.41 141" enable-background="new 0 0 1697.41 141" xml:space="preserve">
<g>
	<g>
		<defs>
			<rect id="SVGID_1_" width="1697.414" height="207.162"/>
		</defs>
		<clipPath id="SVGID_2_">
			<use xlink:href="#SVGID_1_"  overflow="visible"/>
		</clipPath>
		<path clip-path="url(#SVGID_2_)" fill="#DADADA" d="M913.653,57.104c0,14.359-11.642,26-26,26c-14.359,0-26-11.641-26-26
			c0-14.358,11.641-26,26-26S913.653,42.745,913.653,57.104"/>
	</g>
	<g>
		<defs>
			<rect id="SVGID_3_" width="1697.414" height="207.162"/>
		</defs>
		<clipPath id="SVGID_4_">
			<use xlink:href="#SVGID_3_"  overflow="visible"/>
		</clipPath>
		<path clip-path="url(#SVGID_4_)" fill="#DADADA" d="M1050.596,85.234c0,12.136-9.837,21.972-21.971,21.972
			c-12.135,0-21.972-9.836-21.972-21.972c0-12.133,9.837-21.971,21.972-21.971C1040.759,63.266,1050.596,73.102,1050.596,85.234"/>
	</g>
	<g>
		<defs>
			<rect id="SVGID_5_" width="1697.414" height="207.162"/>
		</defs>
		<clipPath id="SVGID_6_">
			<use xlink:href="#SVGID_5_"  overflow="visible"/>
		</clipPath>
		<path clip-path="url(#SVGID_6_)" fill="#DADADA" d="M1071.596,88.984c0,7.026-5.695,12.723-12.721,12.723
			c-7.026,0-12.722-5.695-12.722-12.723c0-7.024,5.695-12.721,12.722-12.721C1065.9,76.266,1071.596,81.96,1071.596,88.984"/>
	</g>
	<g>
		<defs>
			<rect id="SVGID_7_" width="1697.414" height="207.162"/>
		</defs>
		<clipPath id="SVGID_8_">
			<use xlink:href="#SVGID_7_"  overflow="visible"/>
		</clipPath>
		<path clip-path="url(#SVGID_8_)" fill="#DADADA" d="M986.449,83.104c0,27.282-22.116,49.398-49.398,49.398
			c-27.281,0-49.396-22.116-49.396-49.398c0-27.281,22.116-49.396,49.396-49.396C964.333,33.707,986.449,55.822,986.449,83.104"/>
	</g>
	<g>
		<defs>
			<rect id="SVGID_9_" width="1697.414" height="207.162"/>
		</defs>
		<clipPath id="SVGID_10_">
			<use xlink:href="#SVGID_9_"  overflow="visible"/>
		</clipPath>
		<path clip-path="url(#SVGID_10_)" fill="#DADADA" d="M1046.854,117.6c0,27.282-22.116,49.398-49.398,49.398
			c-27.281,0-49.397-22.116-49.397-49.398c0-27.281,22.116-49.397,49.397-49.397C1024.738,68.202,1046.854,90.318,1046.854,117.6"/>
	</g>
	<g>
		<defs>
			<rect id="SVGID_11_" width="1697.414" height="207.162"/>
		</defs>
		<clipPath id="SVGID_12_">
			<use xlink:href="#SVGID_11_"  overflow="visible"/>
		</clipPath>
		<path clip-path="url(#SVGID_12_)" fill="#DADADA" d="M1115.522,88.984c0,27.283-22.116,49.398-49.398,49.398
			c-27.281,0-49.397-22.115-49.397-49.398c0-27.28,22.116-49.396,49.397-49.396C1093.407,39.588,1115.522,61.704,1115.522,88.984"/>
	</g>
	<g>
		<defs>
			<rect id="SVGID_13_" width="1697.414" height="207.162"/>
		</defs>
		<clipPath id="SVGID_14_">
			<use xlink:href="#SVGID_13_"  overflow="visible"/>
		</clipPath>
		<path clip-path="url(#SVGID_14_)" fill="#DADADA" d="M1183.125,72.707c0,27.282-22.116,49.398-49.398,49.398
			c-27.28,0-49.396-22.116-49.396-49.398s22.116-49.398,49.396-49.398C1161.009,23.309,1183.125,45.425,1183.125,72.707"/>
	</g>
	<g>
		<defs>
			<rect id="SVGID_15_" width="1697.414" height="207.162"/>
		</defs>
		<clipPath id="SVGID_16_">
			<use xlink:href="#SVGID_15_"  overflow="visible"/>
		</clipPath>
		<path clip-path="url(#SVGID_16_)" fill="#DADADA" d="M1378.125,68.202c0,25.901-20.997,46.897-46.898,46.897
			c-25.899,0-46.896-20.996-46.896-46.897c0-25.9,20.997-46.897,46.896-46.897C1357.128,21.305,1378.125,42.302,1378.125,68.202"/>
	</g>
	<g>
		<defs>
			<rect id="SVGID_17_" width="1697.414" height="207.162"/>
		</defs>
		<clipPath id="SVGID_18_">
			<use xlink:href="#SVGID_17_"  overflow="visible"/>
		</clipPath>
		<path clip-path="url(#SVGID_18_)" fill="#DADADA" d="M753.125,114.736c0,37.774-30.623,68.397-68.398,68.397
			c-37.773,0-68.396-30.623-68.396-68.397c0-37.775,30.622-68.398,68.396-68.398C722.502,46.338,753.125,76.961,753.125,114.736"/>
	</g>
	<g>
		<defs>
			<rect id="SVGID_19_" width="1697.414" height="207.162"/>
		</defs>
		<clipPath id="SVGID_20_">
			<use xlink:href="#SVGID_19_"  overflow="visible"/>
		</clipPath>
		<path clip-path="url(#SVGID_20_)" fill="#DADADA" d="M541.59,94.734c0,37.775-30.623,68.398-68.396,68.398
			c-37.775,0-68.398-30.623-68.398-68.398c0-37.773,30.623-68.396,68.398-68.396C510.967,26.338,541.59,56.961,541.59,94.734"/>
	</g>
	<g>
		<defs>
			<rect id="SVGID_21_" width="1697.414" height="207.162"/>
		</defs>
		<clipPath id="SVGID_22_">
			<use xlink:href="#SVGID_21_"  overflow="visible"/>
		</clipPath>
		<path clip-path="url(#SVGID_22_)" fill="#DADADA" d="M295.59,122.104c0,37.775-30.623,68.398-68.396,68.398
			c-37.775,0-68.398-30.623-68.398-68.398c0-37.773,30.623-68.396,68.398-68.396C264.967,53.707,295.59,84.33,295.59,122.104"/>
	</g>
	<g>
		<defs>
			<rect id="SVGID_23_" width="1697.414" height="207.162"/>
		</defs>
		<clipPath id="SVGID_24_">
			<use xlink:href="#SVGID_23_"  overflow="visible"/>
		</clipPath>
		<path clip-path="url(#SVGID_24_)" fill="#DADADA" d="M656.386,114.707c0,48.82-39.577,88.398-88.397,88.398
			c-48.819,0-88.396-39.578-88.396-88.398c0-48.821,39.577-88.398,88.396-88.398C616.809,26.309,656.386,65.886,656.386,114.707"/>
	</g>
	<g>
		<defs>
			<rect id="SVGID_25_" width="1697.414" height="207.162"/>
		</defs>
		<clipPath id="SVGID_26_">
			<use xlink:href="#SVGID_25_"  overflow="visible"/>
		</clipPath>
		<path clip-path="url(#SVGID_26_)" fill="#DADADA" d="M937.051,118.764c0,48.821-39.577,88.398-88.397,88.398
			s-88.397-39.577-88.397-88.398c0-48.82,39.577-88.397,88.397-88.397S937.051,69.943,937.051,118.764"/>
	</g>
	<g>
		<defs>
			<rect id="SVGID_27_" width="1697.414" height="207.162"/>
		</defs>
		<clipPath id="SVGID_28_">
			<use xlink:href="#SVGID_27_"  overflow="visible"/>
		</clipPath>
		<path clip-path="url(#SVGID_28_)" fill="#DADADA" d="M176.795,91.326c0,48.82-39.576,88.398-88.396,88.398
			S0.001,140.146,0.001,91.326c0-48.821,39.577-88.398,88.397-88.398S176.795,42.505,176.795,91.326"/>
	</g>
	<g>
		<defs>
			<rect id="SVGID_29_" width="1697.414" height="207.162"/>
		</defs>
		<clipPath id="SVGID_30_">
			<use xlink:href="#SVGID_29_"  overflow="visible"/>
		</clipPath>
		<path clip-path="url(#SVGID_30_)" fill="#DADADA" d="M1533.92,94.734c0,48.822-39.576,88.398-88.398,88.398
			c-48.819,0-88.396-39.576-88.396-88.398c0-48.819,39.577-88.396,88.396-88.396C1494.344,6.338,1533.92,45.915,1533.92,94.734"/>
	</g>
	<g>
		<defs>
			<rect id="SVGID_31_" width="1697.414" height="207.162"/>
		</defs>
		<clipPath id="SVGID_32_">
			<use xlink:href="#SVGID_31_"  overflow="visible"/>
		</clipPath>
		<path clip-path="url(#SVGID_32_)" fill="#DADADA" d="M1697.414,101.707c0,56.171-45.536,101.707-101.707,101.707
			S1494,157.878,1494,101.707S1539.536,0,1595.707,0S1697.414,45.536,1697.414,101.707"/>
	</g>
	<g>
		<defs>
			<rect id="SVGID_33_" width="1697.414" height="207.162"/>
		</defs>
		<clipPath id="SVGID_34_">
			<use xlink:href="#SVGID_33_"  overflow="visible"/>
		</clipPath>
		<path clip-path="url(#SVGID_34_)" fill="#DADADA" d="M266.408,83.104c0,27.282-22.116,49.398-49.398,49.398
			c-27.28,0-49.396-22.116-49.396-49.398c0-27.281,22.115-49.396,49.396-49.396C244.292,33.707,266.408,55.822,266.408,83.104"/>
	</g>
	<g>
		<defs>
			<rect id="SVGID_35_" width="1697.414" height="207.162"/>
		</defs>
		<clipPath id="SVGID_36_">
			<use xlink:href="#SVGID_35_"  overflow="visible"/>
		</clipPath>
		<path clip-path="url(#SVGID_36_)" fill="#DADADA" d="M571.988,63.266c0,27.28-22.116,49.396-49.398,49.396
			c-27.281,0-49.396-22.116-49.396-49.396c0-27.283,22.114-49.398,49.396-49.398C549.872,13.866,571.988,35.982,571.988,63.266"/>
	</g>
	<g>
		<defs>
			<rect id="SVGID_37_" width="1697.414" height="207.162"/>
		</defs>
		<clipPath id="SVGID_38_">
			<use xlink:href="#SVGID_37_"  overflow="visible"/>
		</clipPath>
		<path clip-path="url(#SVGID_38_)" fill="#DADADA" d="M797.397,76.266c0,27.281-22.116,49.396-49.397,49.396
			s-49.396-22.116-49.396-49.396c0-27.283,22.115-49.398,49.396-49.398S797.397,48.982,797.397,76.266"/>
	</g>
	<g>
		<defs>
			<rect id="SVGID_39_" width="1697.414" height="207.162"/>
		</defs>
		<clipPath id="SVGID_40_">
			<use xlink:href="#SVGID_39_"  overflow="visible"/>
		</clipPath>
		<path clip-path="url(#SVGID_40_)" fill="#DADADA" d="M1028.625,63.266c0,16.426-13.317,29.742-29.744,29.742
			s-29.744-13.316-29.744-29.742c0-16.429,13.317-29.744,29.744-29.744S1028.625,46.837,1028.625,63.266"/>
	</g>
	<g>
		<defs>
			<rect id="SVGID_41_" width="1697.414" height="207.162"/>
		</defs>
		<clipPath id="SVGID_42_">
			<use xlink:href="#SVGID_41_"  overflow="visible"/>
		</clipPath>
		<path clip-path="url(#SVGID_42_)" fill="#DADADA" d="M301.744,57.104c0,16.428-13.317,29.744-29.744,29.744
			s-29.744-13.316-29.744-29.744c0-16.427,13.317-29.744,29.744-29.744S301.744,40.678,301.744,57.104"/>
	</g>
	<g>
		<defs>
			<rect id="SVGID_43_" width="1697.414" height="207.162"/>
		</defs>
		<clipPath id="SVGID_44_">
			<use xlink:href="#SVGID_43_"  overflow="visible"/>
		</clipPath>
		<path clip-path="url(#SVGID_44_)" fill="#DADADA" d="M193.613,41.281c0,14.357-11.643,26-26,26c-14.359,0-26-11.643-26-26
			c0-14.359,11.641-26,26-26C181.972,15.281,193.613,26.922,193.613,41.281"/>
	</g>
	<g>
		<defs>
			<rect id="SVGID_45_" width="1697.414" height="207.162"/>
		</defs>
		<clipPath id="SVGID_46_">
			<use xlink:href="#SVGID_45_"  overflow="visible"/>
		</clipPath>
		<path clip-path="url(#SVGID_46_)" fill="#DADADA" d="M448.795,101.707c0,48.82-39.576,88.398-88.396,88.398
			s-88.397-39.578-88.397-88.398c0-48.821,39.577-88.398,88.397-88.398S448.795,52.886,448.795,101.707"/>
	</g>
	<g>
		<defs>
			<rect id="SVGID_47_" width="1697.414" height="207.162"/>
		</defs>
		<clipPath id="SVGID_48_">
			<use xlink:href="#SVGID_47_"  overflow="visible"/>
		</clipPath>
		<path clip-path="url(#SVGID_48_)" fill="#DADADA" d="M1337.125,112.662c0,48.82-39.577,88.397-88.398,88.397
			c-48.819,0.001-88.396-39.577-88.396-88.397c0-48.821,39.577-88.398,88.397-88.398S1337.125,63.841,1337.125,112.662"/>
	</g>
	<g>
		<defs>
			<rect id="SVGID_49_" width="1697.414" height="207.162"/>
		</defs>
		<clipPath id="SVGID_50_">
			<use xlink:href="#SVGID_49_"  overflow="visible"/>
		</clipPath>
		<path clip-path="url(#SVGID_50_)" fill="#DADADA" d="M1388.125,122.104c0,25.901-20.997,46.898-46.898,46.898
			c-25.899,0-46.896-20.997-46.896-46.898c0-25.9,20.997-46.896,46.896-46.896C1367.128,75.207,1388.125,96.203,1388.125,122.104"/>
	</g>
	<g>
		<defs>
			<rect id="SVGID_51_" width="1697.414" height="207.162"/>
		</defs>
		<clipPath id="SVGID_52_">
			<use xlink:href="#SVGID_51_"  overflow="visible"/>
		</clipPath>
		<path clip-path="url(#SVGID_52_)" fill="#DADADA" d="M1178.125,125.662c0,25.9-20.997,46.898-46.898,46.898
			c-25.899,0-46.896-20.998-46.896-46.898c0-25.901,20.997-46.898,46.896-46.898C1157.128,78.764,1178.125,99.761,1178.125,125.662"
			/>
	</g>
	<g>
		<defs>
			<rect id="SVGID_53_" width="1697.414" height="207.162"/>
		</defs>
		<clipPath id="SVGID_54_">
			<use xlink:href="#SVGID_53_"  overflow="visible"/>
		</clipPath>
		<path clip-path="url(#SVGID_54_)" fill="#DADADA" d="M998.881,132.502c0,25.9-20.997,46.898-46.897,46.898
			s-46.897-20.998-46.897-46.898s20.997-46.896,46.897-46.896C977.884,85.604,998.881,106.602,998.881,132.502"/>
	</g>
	<g>
		<defs>
			<rect id="SVGID_55_" width="1697.414" height="207.162"/>
		</defs>
		<clipPath id="SVGID_56_">
			<use xlink:href="#SVGID_55_"  overflow="visible"/>
		</clipPath>
		<path clip-path="url(#SVGID_56_)" fill="#DADADA" d="M1118.494,148.604c0,25.901-20.997,46.898-46.898,46.898
			c-25.899,0-46.896-20.997-46.896-46.898c0-25.9,20.997-46.896,46.896-46.896C1097.497,101.707,1118.494,122.704,1118.494,148.604"
			/>
	</g>
	<g>
		<defs>
			<rect id="SVGID_57_" width="1697.414" height="207.162"/>
		</defs>
		<clipPath id="SVGID_58_">
			<use xlink:href="#SVGID_57_"  overflow="visible"/>
		</clipPath>
		<path clip-path="url(#SVGID_58_)" fill="#DADADA" d="M807.153,136.236c0,25.9-20.997,46.897-46.897,46.897
			c-25.899,0-46.896-20.997-46.896-46.897c0-25.901,20.997-46.898,46.896-46.898C786.156,89.338,807.153,110.334,807.153,136.236"/>
	</g>
</g>
<rect x="0.85" y="103.581" fill="#DADADA" width="1696.564" height="155.419"/>
</svg>
