<?xml version="1.0" encoding="utf-8"?>
<!-- Generator: Adobe Illustrator 21.1.0, SVG Export Plug-In . SVG Version: 6.00 Build 0)  -->
<svg version="1.1" xmlns="http://www.w3.org/2000/svg" xmlns:xlink="http://www.w3.org/1999/xlink" x="0px" y="0px" width="40px"
	 height="40px" viewBox="0 0 40 40" style="enable-background:new 0 0 40 40;" xml:space="preserve">
<style type="text/css">
	.st0{opacity:0.9;}
	.st1{fill:#FFFFFF;}
	.st2{fill:#C1C1C1;}
	.st3{fill:url(#SVGID_1_);}
	.st4{fill:#FFBB3A;}
	.st5{fill:#FFAA00;}
	.st6{fill:#FC5E57;}
	.st7{fill:#CE4E4A;}
	.st8{fill:#2CC448;}
	.st9{fill:#40B240;}
	.st10{fill:none;stroke:#2E2E2E;stroke-miterlimit:10;}
	.st11{fill:none;stroke:#B6B6B6;stroke-miterlimit:10;}
	.st12{fill:#2E2E2E;}
	.st13{fill:#B6B6B6;}
	.st14{fill:none;stroke:#FFFFFF;stroke-miterlimit:10;}
	.st15{fill:none;stroke:#FFFFFF;stroke-width:2;stroke-miterlimit:10;}
	.st16{clip-path:url(#SVGID_4_);}
	.st17{clip-path:url(#SVGID_6_);}
	.st18{fill:#074889;}
	.st19{clip-path:url(#SVGID_7_);}
	.st20{fill:#F3FAFF;}
	.st21{fill:url(#SVGID_9_);}
	.st22{clip-path:url(#SVGID_11_);}
	.st23{opacity:0.5;}
	.st24{enable-background:new    ;}
	.st25{fill:#BFBFBF;}
	.st26{clip-path:url(#SVGID_19_);}
	.st27{clip-path:url(#SVGID_21_);}
	.st28{clip-path:url(#SVGID_23_);}
	.st29{opacity:0.2;}
	.st30{opacity:0.15;}
	.st31{opacity:0.1;}
	.st32{opacity:5.000000e-02;}
	.st33{clip-path:url(#SVGID_25_);}
	.st34{fill:#4D4D4D;}
	.st35{fill:#ED1E79;}
	.st36{opacity:0.25;}
	.st37{fill:none;stroke:#074889;stroke-miterlimit:10;}
	.st38{fill:none;stroke:#074889;stroke-linecap:round;stroke-linejoin:round;stroke-miterlimit:10;}
	.st39{fill:none;stroke:#4D4D4D;stroke-miterlimit:10;}
	.st40{fill:none;stroke:#4D4D4D;stroke-miterlimit:10;stroke-dasharray:11.9481,11.9481;}
	.st41{fill:none;stroke:#4D4D4D;stroke-miterlimit:10;stroke-dasharray:11.9176,11.9176;}
	.st42{fill:none;stroke:#4D4D4D;stroke-miterlimit:10;stroke-dasharray:11.8813,11.8813;}
	.st43{fill:none;stroke:#4D4D4D;stroke-miterlimit:10;stroke-dasharray:11.9433,11.9433;}
	.st44{fill:none;stroke:#4D4D4D;stroke-miterlimit:10;stroke-dasharray:11.9366,11.9366;}
	.st45{fill:none;stroke:#4D4D4D;stroke-miterlimit:10;stroke-dasharray:11.9123,11.9123;}
	.st46{fill:none;stroke:#4D4D4D;stroke-miterlimit:10;stroke-dasharray:12.1233,12.1233;}
	.st47{fill:none;stroke:#4D4D4D;stroke-miterlimit:10;stroke-dasharray:11.8771,11.8771;}
	.st48{fill:none;stroke:#4D4D4D;stroke-miterlimit:10;stroke-dasharray:12.0861,12.0861;}
	.st49{fill:none;stroke:#4D4D4D;stroke-miterlimit:10;stroke-dasharray:12.0157,12.0157;}
	.st50{fill:none;stroke:#4D4D4D;stroke-miterlimit:10;stroke-dasharray:11.9804,11.9804;}
	.st51{fill:none;stroke:#4D4D4D;stroke-miterlimit:10;stroke-dasharray:11.9697,11.9697;}
	.st52{fill:none;stroke:#4D4D4D;stroke-miterlimit:10;stroke-dasharray:12.1351,12.1351;}
	.st53{fill:none;stroke:#4D4D4D;stroke-miterlimit:10;stroke-dasharray:11.6793,11.6793;}
	.st54{fill:none;stroke:#4D4D4D;stroke-miterlimit:10;stroke-dasharray:12.0659,12.0659;}
	.st55{fill:none;stroke:#4D4D4D;stroke-miterlimit:10;stroke-dasharray:12.1725,12.1725;}
	.st56{fill:none;stroke:#CFDEE8;stroke-miterlimit:10;}
</style>
<g id="Bg">
</g>
<g id="Hero_x5F_Image">
</g>
<g id="Text">
	<g>
		<g>
			<path class="st37" d="M26.4,23.5h2.8v3.5c5.1,0,7.8-2.6,7.8-6.2c0-3-2-5.6-4.8-6.3c0.3-1,0.4-2,0.4-3c-0.3-4.3-3.9-7.9-8.2-7.9
				h-0.1c-3.4,0-6.5,2.2-7.7,5.4c-1.3-1-2.9-1.6-4.5-1.4C9.7,8,7.7,9.6,6.9,11.9c-0.4,1-0.5,2.1-0.3,3.2C4.4,16.2,3,18.4,3,20.9
				c0,3.6,2.7,6.2,7.8,6.2v-3.5h2.8"/>
			<path class="st38" d="M26.4,20c0-3.5-2.9-6.4-6.4-6.4s-6.4,2.9-6.4,6.4v3.5h-2.8v12.7h18.4V23.5h-2.8V20z M16,20.7
				c0-2.2,1.8-4,4-4s4,1.8,4,4v2.9h-8V20.7z M23.6,32.3h-7.1 M25.7,28.3L25.7,28.3H14.3"/>
		</g>
	</g>
</g>
<g id="Annotations">
</g>
</svg>
