<?xml version="1.0" encoding="utf-8"?>
<!-- Generator: Adobe Illustrator 16.0.0, SVG Export Plug-In . SVG Version: 6.00 Build 0)  -->
<!DOCTYPE svg PUBLIC "-//W3C//DTD SVG 1.1//EN" "http://www.w3.org/Graphics/SVG/1.1/DTD/svg11.dtd">
<svg version="1.1" id="Calque_1" xmlns="http://www.w3.org/2000/svg" xmlns:xlink="http://www.w3.org/1999/xlink" x="0px" y="0px"
	 width="1725.07px" height="138.963px" viewBox="0 0 1725.07 138.963" enable-background="new 0 0 1725.07 138.963"
	 xml:space="preserve">
<g>
	<g>
		<defs>
			<rect id="SVGID_1_" y="0" width="1725.073" height="242.796"/>
		</defs>
		<clipPath id="SVGID_2_">
			<use xlink:href="#SVGID_1_"  overflow="visible"/>
		</clipPath>
		<path clip-path="url(#SVGID_2_)" fill="#EDEDED" d="M727.478,96.261c0,29.687-24.064,53.75-53.75,53.75s-53.75-24.064-53.75-53.75
			c0-29.684,24.064-53.75,53.75-53.75S727.478,66.578,727.478,96.261"/>
	</g>
	<g>
		<defs>
			<rect id="SVGID_3_" y="0" width="1725.073" height="242.796"/>
		</defs>
		<clipPath id="SVGID_4_">
			<use xlink:href="#SVGID_3_"  overflow="visible"/>
		</clipPath>
		<path clip-path="url(#SVGID_4_)" fill="#EDEDED" d="M786.706,104.934c0,29.685-24.063,53.75-53.75,53.75
			c-29.685,0-53.75-24.065-53.75-53.75s24.065-53.75,53.75-53.75C762.642,51.184,786.706,75.249,786.706,104.934"/>
	</g>
	<g>
		<defs>
			<rect id="SVGID_5_" y="0" width="1725.073" height="242.796"/>
		</defs>
		<clipPath id="SVGID_6_">
			<use xlink:href="#SVGID_5_"  overflow="visible"/>
		</clipPath>
		<path clip-path="url(#SVGID_6_)" fill="#EDEDED" d="M1205.461,93.929c0,29.686-24.064,53.75-53.75,53.75
			c-29.685,0-53.75-24.065-53.75-53.75c0-29.685,24.065-53.75,53.75-53.75C1181.396,40.178,1205.461,64.245,1205.461,93.929"/>
	</g>
	<g>
		<defs>
			<rect id="SVGID_7_" y="0" width="1725.073" height="242.796"/>
		</defs>
		<clipPath id="SVGID_8_">
			<use xlink:href="#SVGID_7_"  overflow="visible"/>
		</clipPath>
		<path clip-path="url(#SVGID_8_)" fill="#EDEDED" d="M656.109,95.878c0,29.685-24.065,53.75-53.75,53.75
			c-29.687,0-53.75-24.065-53.75-53.75c0-29.686,24.063-53.75,53.75-53.75C632.044,42.127,656.109,66.192,656.109,95.878"/>
	</g>
	<g>
		<defs>
			<rect id="SVGID_9_" y="0" width="1725.073" height="242.796"/>
		</defs>
		<clipPath id="SVGID_10_">
			<use xlink:href="#SVGID_9_"  overflow="visible"/>
		</clipPath>
		<path clip-path="url(#SVGID_10_)" fill="#EDEDED" d="M910.985,85.212c0,29.686-24.065,53.75-53.75,53.75
			c-29.687,0-53.75-24.064-53.75-53.75c0-29.686,24.063-53.75,53.75-53.75C886.92,31.462,910.985,55.528,910.985,85.212"/>
	</g>
	<g>
		<defs>
			<rect id="SVGID_11_" y="0" width="1725.073" height="242.796"/>
		</defs>
		<clipPath id="SVGID_12_">
			<use xlink:href="#SVGID_11_"  overflow="visible"/>
		</clipPath>
		<path clip-path="url(#SVGID_12_)" fill="#EDEDED" d="M1067.545,94.184c0,29.685-24.064,53.75-53.75,53.75
			c-29.685,0-53.75-24.065-53.75-53.75c0-29.685,24.065-53.75,53.75-53.75C1043.48,40.434,1067.545,64.5,1067.545,94.184"/>
	</g>
	<g>
		<defs>
			<rect id="SVGID_13_" y="0" width="1725.073" height="242.796"/>
		</defs>
		<clipPath id="SVGID_14_">
			<use xlink:href="#SVGID_13_"  overflow="visible"/>
		</clipPath>
		<path clip-path="url(#SVGID_14_)" fill="#EDEDED" d="M1264.609,102.655c0,29.686-24.065,53.75-53.75,53.75
			c-29.686,0-53.75-24.064-53.75-53.75s24.064-53.75,53.75-53.75C1240.544,48.905,1264.609,72.97,1264.609,102.655"/>
	</g>
	<g>
		<defs>
			<rect id="SVGID_15_" y="0" width="1725.073" height="242.796"/>
		</defs>
		<clipPath id="SVGID_16_">
			<use xlink:href="#SVGID_15_"  overflow="visible"/>
		</clipPath>
		<path clip-path="url(#SVGID_16_)" fill="#EDEDED" d="M589.167,101.741c0,41.479-33.625,75.104-75.104,75.104
			s-75.103-33.625-75.103-75.104c0-41.479,33.624-75.104,75.103-75.104S589.167,60.262,589.167,101.741"/>
	</g>
	<g>
		<defs>
			<rect id="SVGID_17_" y="0" width="1725.073" height="242.796"/>
		</defs>
		<clipPath id="SVGID_18_">
			<use xlink:href="#SVGID_17_"  overflow="visible"/>
		</clipPath>
		<path clip-path="url(#SVGID_18_)" fill="#EDEDED" d="M811.873,66.979c0,16.799-13.618,30.417-30.417,30.417
			c-16.798,0-30.416-13.617-30.416-30.417c0-16.8,13.618-30.418,30.416-30.418C798.255,36.561,811.873,50.179,811.873,66.979"/>
	</g>
	<g>
		<defs>
			<rect id="SVGID_19_" y="0" width="1725.073" height="242.796"/>
		</defs>
		<clipPath id="SVGID_20_">
			<use xlink:href="#SVGID_19_"  overflow="visible"/>
		</clipPath>
		<path clip-path="url(#SVGID_20_)" fill="#EDEDED" d="M1132.378,63.905c0,16.799-13.617,30.417-30.417,30.417
			c-16.798,0-30.416-13.618-30.416-30.417c0-16.799,13.618-30.416,30.416-30.416C1118.761,33.489,1132.378,47.106,1132.378,63.905"
			/>
	</g>
	<g>
		<defs>
			<rect id="SVGID_21_" y="0" width="1725.073" height="242.796"/>
		</defs>
		<clipPath id="SVGID_22_">
			<use xlink:href="#SVGID_21_"  overflow="visible"/>
		</clipPath>
		<path clip-path="url(#SVGID_22_)" fill="#EDEDED" d="M1292.775,83.718c0,16.799-13.618,30.416-30.417,30.416
			c-16.798,0-30.416-13.617-30.416-30.416c0-16.799,13.618-30.417,30.416-30.417C1279.157,53.3,1292.775,66.919,1292.775,83.718"/>
	</g>
	<g>
		<defs>
			<rect id="SVGID_23_" y="0" width="1725.073" height="242.796"/>
		</defs>
		<clipPath id="SVGID_24_">
			<use xlink:href="#SVGID_23_"  overflow="visible"/>
		</clipPath>
		<path clip-path="url(#SVGID_24_)" fill="#EDEDED" d="M767.431,53.3c0,16.8-13.618,30.417-30.417,30.417
			S706.598,70.101,706.598,53.3c0-16.799,13.617-30.417,30.416-30.417S767.431,36.502,767.431,53.3"/>
	</g>
	<g>
		<defs>
			<rect id="SVGID_25_" y="0" width="1725.073" height="242.796"/>
		</defs>
		<clipPath id="SVGID_26_">
			<use xlink:href="#SVGID_25_"  overflow="visible"/>
		</clipPath>
		<path clip-path="url(#SVGID_26_)" fill="#EDEDED" d="M1406.064,103.591c0,41.479-33.625,75.104-75.104,75.104
			c-41.478,0-75.102-33.625-75.102-75.104c0-41.479,33.624-75.104,75.102-75.104C1372.439,28.487,1406.064,62.114,1406.064,103.591"
			/>
	</g>
	<g>
		<defs>
			<rect id="SVGID_27_" y="0" width="1725.073" height="242.796"/>
		</defs>
		<clipPath id="SVGID_28_">
			<use xlink:href="#SVGID_27_"  overflow="visible"/>
		</clipPath>
		<path clip-path="url(#SVGID_28_)" fill="#EDEDED" d="M833.901,99.934c0,16.799-13.617,30.417-30.416,30.417
			s-30.416-13.618-30.416-30.417c0-16.8,13.617-30.417,30.416-30.417S833.901,83.134,833.901,99.934"/>
	</g>
	<g>
		<defs>
			<rect id="SVGID_29_" y="0" width="1725.073" height="242.796"/>
		</defs>
		<clipPath id="SVGID_30_">
			<use xlink:href="#SVGID_29_"  overflow="visible"/>
		</clipPath>
		<path clip-path="url(#SVGID_30_)" fill="#EDEDED" d="M994.601,53.3c0,12.683-10.28,22.96-22.961,22.96
			c-12.682,0-22.961-10.278-22.961-22.96c0-12.681,10.279-22.961,22.961-22.961C984.32,30.339,994.601,40.621,994.601,53.3"/>
	</g>
	<g>
		<defs>
			<rect id="SVGID_31_" y="0" width="1725.073" height="242.796"/>
		</defs>
		<clipPath id="SVGID_32_">
			<use xlink:href="#SVGID_31_"  overflow="visible"/>
		</clipPath>
		<path clip-path="url(#SVGID_32_)" fill="#EDEDED" d="M398.423,142.479c0,55.402-44.912,100.316-100.314,100.316
			c-55.403,0-100.316-44.914-100.316-100.316S242.705,42.164,298.108,42.164C353.511,42.164,398.423,87.077,398.423,142.479"/>
	</g>
	<g>
		<defs>
			<rect id="SVGID_33_" y="0" width="1725.073" height="242.796"/>
		</defs>
		<clipPath id="SVGID_34_">
			<use xlink:href="#SVGID_33_"  overflow="visible"/>
		</clipPath>
		<path clip-path="url(#SVGID_34_)" fill="#EDEDED" d="M1557.936,132.257c0,55.404-44.913,100.316-100.316,100.316
			s-100.315-44.912-100.315-100.316c0-55.402,44.912-100.315,100.315-100.315S1557.936,76.854,1557.936,132.257"/>
	</g>
	<g>
		<defs>
			<rect id="SVGID_35_" y="0" width="1725.073" height="242.796"/>
		</defs>
		<clipPath id="SVGID_36_">
			<use xlink:href="#SVGID_35_"  overflow="visible"/>
		</clipPath>
		<path clip-path="url(#SVGID_36_)" fill="#EDEDED" d="M200.632,100.314c0,55.403-44.912,100.315-100.315,100.315
			c-55.402,0-100.315-44.912-100.315-100.315C0.001,44.913,44.914,0,100.316,0C155.72,0,200.632,44.913,200.632,100.314"/>
	</g>
	<g>
		<defs>
			<rect id="SVGID_37_" y="0" width="1725.073" height="242.796"/>
		</defs>
		<clipPath id="SVGID_38_">
			<use xlink:href="#SVGID_37_"  overflow="visible"/>
		</clipPath>
		<path clip-path="url(#SVGID_38_)" fill="#EDEDED" d="M1652.721,93.929c0,38.254-31.012,69.267-69.267,69.267
			c-38.254,0-69.265-31.012-69.265-69.267c0-38.254,31.011-69.265,69.265-69.265C1621.709,24.665,1652.721,55.674,1652.721,93.929"
			/>
	</g>
	<g>
		<defs>
			<rect id="SVGID_39_" y="0" width="1725.073" height="242.796"/>
		</defs>
		<clipPath id="SVGID_40_">
			<use xlink:href="#SVGID_39_"  overflow="visible"/>
		</clipPath>
		<path clip-path="url(#SVGID_40_)" fill="#EDEDED" d="M1725.073,88.171c0,38.254-31.011,69.267-69.267,69.267
			c-38.254,0-69.265-31.013-69.265-69.267c0-38.253,31.011-69.264,69.265-69.264C1694.062,18.907,1725.073,49.918,1725.073,88.171"
			/>
	</g>
	<g>
		<defs>
			<rect id="SVGID_41_" y="0" width="1725.073" height="242.796"/>
		</defs>
		<clipPath id="SVGID_42_">
			<use xlink:href="#SVGID_41_"  overflow="visible"/>
		</clipPath>
		<path clip-path="url(#SVGID_42_)" fill="#EDEDED" d="M983.289,100.314c0,29.687-24.064,53.75-53.75,53.75
			c-29.685,0-53.75-24.065-53.75-53.75s24.065-53.75,53.75-53.75C959.225,46.565,983.289,70.63,983.289,100.314"/>
	</g>
	<g>
		<defs>
			<rect id="SVGID_43_" y="0" width="1725.073" height="242.796"/>
		</defs>
		<clipPath id="SVGID_44_">
			<use xlink:href="#SVGID_43_"  overflow="visible"/>
		</clipPath>
		<path clip-path="url(#SVGID_44_)" fill="#EDEDED" d="M1138.979,99.934c0,29.685-24.065,53.75-53.75,53.75
			c-29.686,0-53.75-24.065-53.75-53.75s24.064-53.75,53.75-53.75C1114.913,46.184,1138.979,70.249,1138.979,99.934"/>
	</g>
	<g>
		<defs>
			<rect id="SVGID_45_" y="0" width="1725.073" height="242.796"/>
		</defs>
		<clipPath id="SVGID_46_">
			<use xlink:href="#SVGID_45_"  overflow="visible"/>
		</clipPath>
		<path clip-path="url(#SVGID_46_)" fill="#EDEDED" d="M473.289,100.741c0,29.686-24.064,53.75-53.75,53.75
			c-29.685,0-53.75-24.064-53.75-53.75s24.065-53.75,53.75-53.75C449.225,46.991,473.289,71.056,473.289,100.741"/>
	</g>
	<g>
		<defs>
			<rect id="SVGID_47_" y="0" width="1725.073" height="242.796"/>
		</defs>
		<clipPath id="SVGID_48_">
			<use xlink:href="#SVGID_47_"  overflow="visible"/>
		</clipPath>
		<path clip-path="url(#SVGID_48_)" fill="#EDEDED" d="M388.75,66.184c0,12.681-10.28,22.96-22.961,22.96
			s-22.961-10.279-22.961-22.96c0-12.682,10.28-22.962,22.961-22.962S388.75,53.503,388.75,66.184"/>
	</g>
	<g>
		<defs>
			<rect id="SVGID_49_" y="0" width="1725.073" height="242.796"/>
		</defs>
		<clipPath id="SVGID_50_">
			<use xlink:href="#SVGID_49_"  overflow="visible"/>
		</clipPath>
		<path clip-path="url(#SVGID_50_)" fill="#EDEDED" d="M263.177,60.741c0,29.686-24.063,53.75-53.75,53.75
			c-29.685,0-53.75-24.064-53.75-53.75c0-29.686,24.065-53.75,53.75-53.75C239.112,6.991,263.177,31.055,263.177,60.741"/>
	</g>
</g>
<rect y="100.315" fill="#EDEDED" width="1725.073" height="142.48"/>
</svg>
