<?xml version="1.0" encoding="utf-8"?>
<!-- Generator: Adobe Illustrator 16.0.0, SVG Export Plug-In . SVG Version: 6.00 Build 0)  -->
<!DOCTYPE svg PUBLIC "-//W3C//DTD SVG 1.1//EN" "http://www.w3.org/Graphics/SVG/1.1/DTD/svg11.dtd">
<svg version="1.1" id="Calque_1" xmlns="http://www.w3.org/2000/svg" xmlns:xlink="http://www.w3.org/1999/xlink" x="0px" y="0px"
	 width="1685.33px" height="155px" viewBox="0 0 1685.33 155" enable-background="new 0 0 1685.33 155" xml:space="preserve">
<g>
	<g>
		<defs>
			<rect id="SVGID_1_" y="-0.1" width="1685.326" height="173.246"/>
		</defs>
		<clipPath id="SVGID_2_">
			<use xlink:href="#SVGID_1_"  overflow="visible"/>
		</clipPath>
		<path clip-path="url(#SVGID_2_)" fill="#FCF9F6" d="M1567.125,59.154c0-32.639,26.46-59.1,59.101-59.1
			c32.642,0.002,59.101,26.461,59.101,59.1c0,32.642-26.46,59.102-59.101,59.102S1567.125,91.796,1567.125,59.154"/>
	</g>
	<g>
		<defs>
			<rect id="SVGID_3_" y="-0.1" width="1685.326" height="173.246"/>
		</defs>
		<clipPath id="SVGID_4_">
			<use xlink:href="#SVGID_3_"  overflow="visible"/>
		</clipPath>
		<path clip-path="url(#SVGID_4_)" fill="#FCF9F6" d="M1066.828,97.134c0-32.64,26.46-59.1,59.1-59.1
			c32.642,0,59.102,26.46,59.102,59.1s-26.46,59.101-59.102,59.101C1093.288,156.234,1066.828,129.773,1066.828,97.134"/>
	</g>
	<g>
		<defs>
			<rect id="SVGID_5_" y="-0.1" width="1685.326" height="173.246"/>
		</defs>
		<clipPath id="SVGID_6_">
			<use xlink:href="#SVGID_5_"  overflow="visible"/>
		</clipPath>
		<path clip-path="url(#SVGID_6_)" fill="#FCF9F6" d="M645.047,70.725c0-32.64,26.46-59.1,59.101-59.1
			c32.642,0,59.102,26.46,59.102,59.1c0,32.641-26.46,59.101-59.102,59.101C671.507,129.825,645.047,103.365,645.047,70.725"/>
	</g>
	<g>
		<defs>
			<rect id="SVGID_7_" y="-0.1" width="1685.326" height="173.246"/>
		</defs>
		<clipPath id="SVGID_8_">
			<use xlink:href="#SVGID_7_"  overflow="visible"/>
		</clipPath>
		<path clip-path="url(#SVGID_8_)" fill="#FCF9F6" d="M275.896,75.368c0-32.642,26.46-59.101,59.1-59.101
			c32.641,0,59.101,26.459,59.101,59.101c0,32.64-26.46,59.1-59.101,59.1C302.356,134.468,275.896,108.008,275.896,75.368"/>
	</g>
	<g>
		<defs>
			<rect id="SVGID_9_" y="-0.1" width="1685.326" height="173.246"/>
		</defs>
		<clipPath id="SVGID_10_">
			<use xlink:href="#SVGID_9_"  overflow="visible"/>
		</clipPath>
		<path clip-path="url(#SVGID_10_)" fill="#FCF9F6" d="M0,66.154c0-32.641,26.461-59.1,59.102-59.1s59.101,26.459,59.101,59.1
			s-26.46,59.101-59.101,59.101S0,98.795,0,66.154"/>
	</g>
	<g>
		<defs>
			<rect id="SVGID_11_" y="-0.1" width="1685.326" height="173.246"/>
		</defs>
		<clipPath id="SVGID_12_">
			<use xlink:href="#SVGID_11_"  overflow="visible"/>
		</clipPath>
		<path clip-path="url(#SVGID_12_)" fill="#FCF9F6" d="M939.371,99.162c0-40.86,33.124-73.984,73.984-73.984
			c40.859,0,73.982,33.124,73.982,73.984c0,40.859-33.123,73.984-73.982,73.984C972.495,173.146,939.371,140.021,939.371,99.162"/>
	</g>
	<g>
		<defs>
			<rect id="SVGID_13_" y="-0.1" width="1685.326" height="173.246"/>
		</defs>
		<clipPath id="SVGID_14_">
			<use xlink:href="#SVGID_13_"  overflow="visible"/>
		</clipPath>
		<path clip-path="url(#SVGID_14_)" fill="#FCF9F6" d="M1432.548,95.368c0-40.86,33.123-73.984,73.983-73.984
			s73.983,33.124,73.983,73.984s-33.123,73.983-73.983,73.983S1432.548,136.229,1432.548,95.368"/>
	</g>
	<g>
		<defs>
			<rect id="SVGID_15_" y="-0.1" width="1685.326" height="173.246"/>
		</defs>
		<clipPath id="SVGID_16_">
			<use xlink:href="#SVGID_15_"  overflow="visible"/>
		</clipPath>
		<path clip-path="url(#SVGID_16_)" fill="#FCF9F6" d="M371.273,96.941c0-40.86,33.124-73.984,73.983-73.984
			c40.86,0,73.983,33.124,73.983,73.984c0,40.859-33.123,73.983-73.983,73.983C404.397,170.925,371.273,137.801,371.273,96.941"/>
	</g>
	<g>
		<defs>
			<rect id="SVGID_17_" y="-0.1" width="1685.326" height="173.246"/>
		</defs>
		<clipPath id="SVGID_18_">
			<use xlink:href="#SVGID_17_"  overflow="visible"/>
		</clipPath>
		<path clip-path="url(#SVGID_18_)" fill="#FCF9F6" d="M506.945,96.941c0-40.86,33.124-73.984,73.982-73.984
			c40.86,0,73.983,33.124,73.983,73.984c0,40.859-33.123,73.983-73.983,73.983C540.069,170.925,506.945,137.801,506.945,96.941"/>
	</g>
	<g>
		<defs>
			<rect id="SVGID_19_" y="-0.1" width="1685.326" height="173.246"/>
		</defs>
		<clipPath id="SVGID_20_">
			<use xlink:href="#SVGID_19_"  overflow="visible"/>
		</clipPath>
		<path clip-path="url(#SVGID_20_)" fill="#FCF9F6" d="M93.615,73.884C93.615,33.025,126.739-0.1,167.6-0.1
			c40.858,0,73.981,33.125,73.981,73.983c0,40.86-33.123,73.984-73.981,73.984C126.739,147.868,93.615,114.744,93.615,73.884"/>
	</g>
	<g>
		<defs>
			<rect id="SVGID_21_" y="-0.1" width="1685.326" height="173.246"/>
		</defs>
		<clipPath id="SVGID_22_">
			<use xlink:href="#SVGID_21_"  overflow="visible"/>
		</clipPath>
		<path clip-path="url(#SVGID_22_)" fill="#FCF9F6" d="M1524.218,44.146c0-19.711,15.979-35.691,35.691-35.691
			c19.711,0,35.689,15.98,35.689,35.691s-15.979,35.689-35.689,35.689C1540.197,79.836,1524.218,63.855,1524.218,44.146"/>
	</g>
	<g>
		<defs>
			<rect id="SVGID_23_" y="-0.1" width="1685.326" height="173.246"/>
		</defs>
		<clipPath id="SVGID_24_">
			<use xlink:href="#SVGID_23_"  overflow="visible"/>
		</clipPath>
		<path clip-path="url(#SVGID_24_)" fill="#FCF9F6" d="M222.218,69.032c0-19.712,15.979-35.691,35.69-35.691
			s35.689,15.979,35.689,35.691c0,19.711-15.979,35.69-35.689,35.69C238.196,104.723,222.218,88.743,222.218,69.032"/>
	</g>
	<g>
		<defs>
			<rect id="SVGID_25_" y="-0.1" width="1685.326" height="173.246"/>
		</defs>
		<clipPath id="SVGID_26_">
			<use xlink:href="#SVGID_25_"  overflow="visible"/>
		</clipPath>
		<path clip-path="url(#SVGID_26_)" fill="#FCF9F6" d="M889.835,60.544c0-19.711,15.979-35.69,35.691-35.69
			c19.711,0,35.689,15.979,35.689,35.69s-15.979,35.69-35.689,35.69C905.814,96.234,889.835,80.255,889.835,60.544"/>
	</g>
	<g>
		<defs>
			<rect id="SVGID_27_" y="-0.1" width="1685.326" height="173.246"/>
		</defs>
		<clipPath id="SVGID_28_">
			<use xlink:href="#SVGID_27_"  overflow="visible"/>
		</clipPath>
		<path clip-path="url(#SVGID_28_)" fill="#FCF9F6" d="M1149.338,59.154c0-19.711,15.979-35.689,35.691-35.689
			c19.711,0,35.689,15.979,35.689,35.689c0,19.712-15.979,35.691-35.689,35.691C1165.317,94.848,1149.338,78.866,1149.338,59.154"/>
	</g>
	<g>
		<defs>
			<rect id="SVGID_29_" y="-0.1" width="1685.326" height="173.246"/>
		</defs>
		<clipPath id="SVGID_30_">
			<use xlink:href="#SVGID_29_"  overflow="visible"/>
		</clipPath>
		<path clip-path="url(#SVGID_30_)" fill="#FCF9F6" d="M482.945,47.544c0-19.711,15.979-35.69,35.689-35.69
			s35.69,15.979,35.69,35.69s-15.979,35.69-35.69,35.69S482.945,67.255,482.945,47.544"/>
	</g>
	<g>
		<defs>
			<rect id="SVGID_31_" y="-0.1" width="1685.326" height="173.246"/>
		</defs>
		<clipPath id="SVGID_32_">
			<use xlink:href="#SVGID_31_"  overflow="visible"/>
		</clipPath>
		<path clip-path="url(#SVGID_32_)" fill="#FCF9F6" d="M1380.443,57.044c0-19.711,15.979-35.69,35.69-35.69
			s35.69,15.979,35.69,35.69s-15.979,35.69-35.69,35.69S1380.443,76.755,1380.443,57.044"/>
	</g>
	<g>
		<defs>
			<rect id="SVGID_33_" y="-0.1" width="1685.326" height="173.246"/>
		</defs>
		<clipPath id="SVGID_34_">
			<use xlink:href="#SVGID_33_"  overflow="visible"/>
		</clipPath>
		<path clip-path="url(#SVGID_34_)" fill="#FCF9F6" d="M1181.627,76.154c0-19.711,15.979-35.69,35.691-35.69
			c19.711,0,35.689,15.979,35.689,35.69s-15.979,35.691-35.689,35.691C1197.606,111.846,1181.627,95.866,1181.627,76.154"/>
	</g>
	<g>
		<defs>
			<rect id="SVGID_35_" y="-0.1" width="1685.326" height="173.246"/>
		</defs>
		<clipPath id="SVGID_36_">
			<use xlink:href="#SVGID_35_"  overflow="visible"/>
		</clipPath>
		<path clip-path="url(#SVGID_36_)" fill="#FCF9F6" d="M1240.188,68.745c0-29.899,24.238-54.14,54.139-54.14
			s54.139,24.238,54.139,54.14c0,29.899-24.238,54.139-54.139,54.139S1240.188,98.645,1240.188,68.745"/>
	</g>
	<g>
		<defs>
			<rect id="SVGID_37_" y="-0.1" width="1685.326" height="173.246"/>
		</defs>
		<clipPath id="SVGID_38_">
			<use xlink:href="#SVGID_37_"  overflow="visible"/>
		</clipPath>
		<path clip-path="url(#SVGID_38_)" fill="#FCF9F6" d="M1331.045,70.725c0-19.711,15.979-35.689,35.691-35.689
			c19.711,0,35.69,15.979,35.69,35.689s-15.979,35.691-35.69,35.691C1347.024,106.416,1331.045,90.436,1331.045,70.725"/>
	</g>
	<g>
		<defs>
			<rect id="SVGID_39_" y="-0.1" width="1685.326" height="173.246"/>
		</defs>
		<clipPath id="SVGID_40_">
			<use xlink:href="#SVGID_39_"  overflow="visible"/>
		</clipPath>
		<path clip-path="url(#SVGID_40_)" fill="#FCF9F6" d="M744.484,60.544c0-19.711,15.979-35.69,35.689-35.69
			s35.69,15.979,35.69,35.69s-15.979,35.69-35.69,35.69S744.484,80.255,744.484,60.544"/>
	</g>
	<g>
		<defs>
			<rect id="SVGID_41_" y="-0.1" width="1685.326" height="173.246"/>
		</defs>
		<clipPath id="SVGID_42_">
			<use xlink:href="#SVGID_41_"  overflow="visible"/>
		</clipPath>
		<path clip-path="url(#SVGID_42_)" fill="#FCF9F6" d="M802.848,79.836c0-29.523,23.934-53.457,53.457-53.457
			s53.457,23.934,53.457,53.457s-23.934,53.457-53.457,53.457S802.848,109.359,802.848,79.836"/>
	</g>
</g>
<rect y="66.154" fill="#FCF9F6" width="1685.326" height="244.145"/>
</svg>
